<mxfile host="app.diagrams.net" modified="2023-04-21T14:03:44.365Z" agent="Mozilla/5.0 (Windows NT 6.1; Win64; x64; rv:109.0) Gecko/20100101 Firefox/112.0" version="21.2.1" etag="QTQy_NmVrV3WMy4QK_3t" type="github">
  <diagram name="Page-1" id="_b0eh5DQuaqP5RNn7R9g">
    <mxGraphModel>
      <root>
        <mxCell id="0" />
        <mxCell id="1" parent="0" />
      </root>
    </mxGraphModel>
  </diagram>
</mxfile>
